<svg xmlns="http://www.w3.org/2000/svg" xmlns:xlink="http://www.w3.org/1999/xlink" width="1080" zoomAndPan="magnify" viewBox="0 0 810 809.999993" height="1080" preserveAspectRatio="xMidYMid meet" version="1.0"><defs><clipPath id="id1"><path d="M 0 69 L 809.664062 69 L 809.664062 768 L 0 768 Z M 0 69 " clip-rule="nonzero"/></clipPath><clipPath id="id2"><path d="M 0 231.925781 L 803 231.925781 L 803 578.425781 L 0 578.425781 Z M 0 231.925781 " clip-rule="nonzero"/></clipPath><clipPath id="id3"><path d="M 0 6.582031 L 803.25 6.582031 L 803.25 809.832031 L 0 809.832031 Z M 0 6.582031 " clip-rule="nonzero"/></clipPath></defs><g clip-path="url(#id1)"><path fill="#ffffff" d="M 809.664062 209.25 L -27.335938 209.25 L -27.335938 69.75 L 809.664062 69.75 Z M 809.664062 348.75 L -27.335938 348.75 L -27.335938 488.25 L 809.664062 488.25 Z M 809.664062 627.75 L -27.335938 627.75 L -27.335938 767.25 L 809.664062 767.25 Z M 809.664062 627.75 " fill-opacity="1" fill-rule="nonzero"/></g><g clip-path="url(#id2)"><path fill="#ffffff" d="M 802.464844 405.175781 L 629.375 231.925781 L 629.375 361.863281 L -19.71875 361.863281 L -19.71875 448.488281 L 629.375 448.488281 L 629.375 578.425781 Z M 802.464844 405.175781 " fill-opacity="1" fill-rule="nonzero"/></g><g clip-path="url(#id3)"><path fill="#0089ed" d="M 401.625 6.582031 C 179.523438 6.582031 0 186.105469 0 408.207031 C 0 630.308594 179.523438 809.832031 401.625 809.832031 C 623.726562 809.832031 803.25 630.308594 803.25 408.207031 C 803.25 186.105469 623.726562 6.582031 401.625 6.582031 Z M 607.617188 424.320312 L 559.28125 472.652344 C 558.132812 473.804688 558.132812 473.804688 556.980469 474.953125 L 375.15625 655.628906 C 365.949219 664.832031 352.140625 664.832031 342.933594 655.628906 L 294.601562 607.292969 C 285.394531 598.085938 285.394531 584.277344 294.601562 575.070312 L 403.925781 465.746094 L 211.746094 465.746094 C 199.085938 465.746094 188.730469 455.390625 188.730469 442.730469 L 188.730469 373.683594 C 188.730469 361.027344 199.085938 350.667969 211.746094 350.667969 L 402.777344 350.667969 L 293.449219 241.34375 C 284.246094 232.136719 284.246094 218.328125 293.449219 209.121094 L 341.785156 160.789062 C 350.992188 151.582031 364.800781 151.582031 374.007812 160.789062 L 554.679688 341.460938 C 555.832031 342.613281 555.832031 342.613281 556.980469 343.765625 L 605.3125 392.097656 C 609.917969 396.699219 612.21875 402.453125 612.21875 408.207031 C 614.519531 413.960938 612.21875 419.714844 607.617188 424.320312 Z M 607.617188 424.320312 " fill-opacity="1" fill-rule="nonzero"/></g></svg>