<svg xmlns="http://www.w3.org/2000/svg" xmlns:xlink="http://www.w3.org/1999/xlink" width="1080" zoomAndPan="magnify" viewBox="0 0 810 809.999993" height="1080" preserveAspectRatio="xMidYMid meet" version="1.0"><defs><clipPath id="id1"><path d="M 0 69 L 809.664062 69 L 809.664062 768 L 0 768 Z M 0 69 " clip-rule="nonzero"/></clipPath></defs><g clip-path="url(#id1)"><path fill="#ffffff" d="M 809.664062 209.25 L -27.335938 209.25 L -27.335938 69.75 L 809.664062 69.75 Z M 809.664062 348.75 L -27.335938 348.75 L -27.335938 488.25 L 809.664062 488.25 Z M 809.664062 627.75 L -27.335938 627.75 L -27.335938 767.25 L 809.664062 767.25 Z M 809.664062 627.75 " fill-opacity="1" fill-rule="nonzero"/></g><path fill="#ee3e54" d="M 37.019531 148.988281 C 36.351562 148.988281 35.691406 149.019531 35.027344 149.085938 C 34.367188 149.152344 33.710938 149.25 33.058594 149.378906 C 32.40625 149.507812 31.761719 149.667969 31.125 149.863281 C 30.488281 150.054688 29.863281 150.277344 29.246094 150.535156 C 28.632812 150.789062 28.03125 151.070312 27.445312 151.386719 C 26.859375 151.699219 26.289062 152.039062 25.738281 152.410156 C 25.183594 152.78125 24.648438 153.175781 24.136719 153.597656 C 23.621094 154.019531 23.128906 154.464844 22.660156 154.9375 C 22.1875 155.40625 21.742188 155.898438 21.320312 156.414062 C 20.898438 156.925781 20.503906 157.460938 20.132812 158.011719 C 19.765625 158.566406 19.421875 159.136719 19.109375 159.722656 C 18.796875 160.308594 18.511719 160.910156 18.257812 161.523438 C 18.003906 162.140625 17.78125 162.765625 17.585938 163.402344 C 17.394531 164.039062 17.230469 164.683594 17.101562 165.335938 C 16.972656 165.988281 16.875 166.644531 16.808594 167.304688 C 16.746094 167.96875 16.710938 168.632812 16.710938 169.296875 C 16.710938 169.960938 16.746094 170.625 16.808594 171.289062 C 16.875 171.949219 16.972656 172.605469 17.101562 173.257812 C 17.230469 173.910156 17.394531 174.554688 17.585938 175.191406 C 17.78125 175.828125 18.003906 176.453125 18.257812 177.070312 C 18.511719 177.683594 18.796875 178.285156 19.109375 178.871094 C 19.421875 179.457031 19.765625 180.027344 20.132812 180.578125 C 20.503906 181.132812 20.898438 181.667969 21.320312 182.179688 C 21.742188 182.695312 22.1875 183.1875 22.660156 183.65625 C 23.128906 184.128906 23.621094 184.574219 24.136719 184.996094 C 24.648438 185.417969 25.183594 185.8125 25.738281 186.183594 C 26.289062 186.550781 26.859375 186.894531 27.445312 187.207031 C 28.03125 187.519531 28.632812 187.804688 29.246094 188.058594 C 29.863281 188.3125 30.488281 188.539062 31.125 188.730469 C 31.761719 188.925781 32.40625 189.085938 33.058594 189.214844 C 33.710938 189.34375 34.367188 189.441406 35.027344 189.507812 C 35.691406 189.574219 36.351562 189.605469 37.019531 189.605469 C 37.683594 189.605469 38.347656 189.574219 39.007812 189.507812 C 39.671875 189.441406 40.328125 189.34375 40.980469 189.214844 C 41.632812 189.085938 42.277344 188.925781 42.914062 188.730469 C 43.550781 188.539062 44.175781 188.316406 44.789062 188.058594 C 45.402344 187.804688 46.003906 187.519531 46.589844 187.207031 C 47.175781 186.894531 47.746094 186.550781 48.300781 186.183594 C 48.851562 185.8125 49.386719 185.417969 49.902344 184.996094 C 50.414062 184.574219 50.90625 184.128906 51.378906 183.65625 C 51.847656 183.1875 52.292969 182.695312 52.714844 182.179688 C 53.136719 181.667969 53.53125 181.132812 53.902344 180.578125 C 54.273438 180.027344 54.613281 179.457031 54.925781 178.871094 C 55.242188 178.285156 55.523438 177.683594 55.777344 177.070312 C 56.035156 176.453125 56.257812 175.828125 56.449219 175.191406 C 56.644531 174.554688 56.804688 173.910156 56.933594 173.257812 C 57.066406 172.605469 57.160156 171.949219 57.226562 171.289062 C 57.292969 170.625 57.324219 169.960938 57.324219 169.296875 C 57.324219 168.632812 57.292969 167.96875 57.226562 167.304688 C 57.160156 166.644531 57.066406 165.988281 56.933594 165.335938 C 56.804688 164.683594 56.644531 164.039062 56.449219 163.402344 C 56.257812 162.765625 56.035156 162.140625 55.777344 161.523438 C 55.523438 160.910156 55.242188 160.308594 54.925781 159.722656 C 54.613281 159.136719 54.273438 158.566406 53.902344 158.011719 C 53.53125 157.460938 53.136719 156.925781 52.714844 156.414062 C 52.292969 155.898438 51.847656 155.40625 51.378906 154.9375 C 50.90625 154.464844 50.414062 154.019531 49.902344 153.597656 C 49.386719 153.175781 48.851562 152.78125 48.300781 152.410156 C 47.746094 152.039062 47.175781 151.699219 46.589844 151.386719 C 46.003906 151.070312 45.402344 150.789062 44.789062 150.535156 C 44.175781 150.277344 43.550781 150.054688 42.914062 149.863281 C 42.277344 149.667969 41.632812 149.507812 40.980469 149.378906 C 40.328125 149.25 39.671875 149.152344 39.007812 149.085938 C 38.347656 149.019531 37.683594 148.988281 37.019531 148.988281 Z M 37.019531 148.988281 " fill-opacity="1" fill-rule="nonzero"/><path fill="#f1bc19" d="M 686.828125 -3.332031 C 686.160156 -3.332031 685.5 -3.265625 684.847656 -3.136719 C 684.191406 -3.003906 683.558594 -2.8125 682.941406 -2.558594 C 682.324219 -2.300781 681.738281 -1.988281 681.1875 -1.621094 C 680.632812 -1.25 680.117188 -0.828125 679.648438 -0.355469 C 679.175781 0.113281 678.753906 0.628906 678.382812 1.183594 C 678.015625 1.738281 677.703125 2.320312 677.445312 2.9375 C 677.191406 3.554688 677 4.1875 676.867188 4.84375 C 676.738281 5.496094 676.671875 6.15625 676.671875 6.824219 C 676.671875 7.492188 676.738281 8.152344 676.867188 8.804688 C 677 9.457031 677.191406 10.09375 677.445312 10.710938 C 677.703125 11.324219 678.015625 11.910156 678.382812 12.464844 C 678.753906 13.019531 679.175781 13.53125 679.648438 14.003906 C 680.117188 14.476562 680.632812 14.898438 681.1875 15.265625 C 681.738281 15.636719 682.324219 15.949219 682.941406 16.207031 C 683.558594 16.460938 684.191406 16.652344 684.847656 16.785156 C 685.5 16.914062 686.160156 16.976562 686.828125 16.976562 C 687.492188 16.976562 688.152344 16.914062 688.808594 16.785156 C 689.460938 16.652344 690.097656 16.460938 690.710938 16.207031 C 691.328125 15.949219 691.914062 15.636719 692.46875 15.265625 C 693.023438 14.898438 693.535156 14.476562 694.007812 14.003906 C 694.476562 13.53125 694.898438 13.019531 695.269531 12.464844 C 695.640625 11.910156 695.953125 11.324219 696.207031 10.710938 C 696.460938 10.09375 696.65625 9.457031 696.785156 8.804688 C 696.914062 8.152344 696.980469 7.492188 696.980469 6.824219 C 696.980469 6.15625 696.914062 5.496094 696.785156 4.84375 C 696.65625 4.1875 696.460938 3.554688 696.207031 2.9375 C 695.953125 2.320312 695.640625 1.738281 695.269531 1.183594 C 694.898438 0.628906 694.476562 0.113281 694.007812 -0.355469 C 693.535156 -0.828125 693.023438 -1.25 692.46875 -1.621094 C 691.914062 -1.988281 691.328125 -2.300781 690.710938 -2.558594 C 690.097656 -2.8125 689.460938 -3.003906 688.808594 -3.136719 C 688.152344 -3.265625 687.492188 -3.332031 686.828125 -3.332031 Z M 686.828125 -3.332031 " fill-opacity="1" fill-rule="nonzero"/><path fill="#fce0a2" d="M 412.6875 6.824219 C 406.539062 6.824219 400.394531 6.976562 394.253906 7.277344 C 388.113281 7.578125 381.984375 8.03125 375.867188 8.632812 C 369.75 9.234375 363.648438 9.988281 357.566406 10.890625 C 351.484375 11.792969 345.429688 12.84375 339.398438 14.042969 C 333.371094 15.242188 327.371094 16.589844 321.410156 18.082031 C 315.445312 19.578125 309.519531 21.21875 303.636719 23.003906 C 297.753906 24.785156 291.917969 26.714844 286.128906 28.785156 C 280.339844 30.859375 274.605469 33.070312 268.925781 35.421875 C 263.246094 37.777344 257.625 40.269531 252.070312 42.898438 C 246.511719 45.527344 241.019531 48.289062 235.597656 51.1875 C 230.175781 54.085938 224.828125 57.117188 219.554688 60.277344 C 214.28125 63.4375 209.089844 66.726562 203.976562 70.144531 C 198.867188 73.558594 193.839844 77.097656 188.902344 80.761719 C 183.964844 84.425781 179.117188 88.207031 174.367188 92.109375 C 169.613281 96.007812 164.960938 100.023438 160.402344 104.152344 C 155.847656 108.28125 151.398438 112.519531 147.050781 116.871094 C 142.703125 121.21875 138.464844 125.667969 134.335938 130.226562 C 130.207031 134.78125 126.191406 139.4375 122.292969 144.1875 C 118.390625 148.941406 114.609375 153.789062 110.949219 158.726562 C 107.285156 163.664062 103.746094 168.691406 100.332031 173.804688 C 96.914062 178.917969 93.625 184.109375 90.464844 189.382812 C 87.304688 194.660156 84.273438 200.007812 81.378906 205.429688 C 78.480469 210.851562 75.714844 216.34375 73.085938 221.902344 C 70.457031 227.460938 67.96875 233.082031 65.613281 238.761719 C 63.261719 244.441406 61.050781 250.175781 58.980469 255.964844 C 56.90625 261.757812 54.980469 267.59375 53.195312 273.476562 C 51.410156 279.359375 49.769531 285.285156 48.277344 291.25 C 46.78125 297.214844 45.4375 303.210938 44.238281 309.242188 C 43.039062 315.273438 41.988281 321.332031 41.085938 327.414062 C 40.183594 333.496094 39.429688 339.597656 38.828125 345.714844 C 38.226562 351.835938 37.773438 357.964844 37.472656 364.105469 C 37.167969 370.25 37.019531 376.394531 37.019531 382.542969 C 37.019531 388.691406 37.167969 394.835938 37.472656 400.976562 C 37.773438 407.121094 38.226562 413.25 38.828125 419.371094 C 39.429688 425.488281 40.183594 431.589844 41.085938 437.671875 C 41.988281 443.753906 43.039062 449.8125 44.238281 455.839844 C 45.4375 461.871094 46.78125 467.871094 48.277344 473.835938 C 49.769531 479.800781 51.410156 485.722656 53.195312 491.609375 C 54.980469 497.492188 56.90625 503.328125 58.980469 509.117188 C 61.050781 514.90625 63.261719 520.644531 65.613281 526.324219 C 67.96875 532.003906 70.457031 537.625 73.085938 543.183594 C 75.714844 548.742188 78.480469 554.230469 81.378906 559.65625 C 84.273438 565.078125 87.304688 570.425781 90.464844 575.699219 C 93.625 580.972656 96.914062 586.167969 100.332031 591.28125 C 103.746094 596.394531 107.285156 601.417969 110.949219 606.359375 C 114.609375 611.296875 118.390625 616.140625 122.292969 620.894531 C 126.191406 625.648438 130.207031 630.304688 134.335938 634.859375 C 138.464844 639.414062 142.703125 643.867188 147.050781 648.214844 C 151.398438 652.5625 155.847656 656.800781 160.402344 660.929688 C 164.960938 665.0625 169.613281 669.074219 174.367188 672.976562 C 179.117188 676.878906 183.964844 680.660156 188.902344 684.324219 C 193.839844 687.984375 198.867188 691.523438 203.976562 694.941406 C 209.089844 698.355469 214.28125 701.644531 219.554688 704.808594 C 224.828125 707.96875 230.175781 710.996094 235.597656 713.898438 C 241.019531 716.796875 246.511719 719.558594 252.070312 722.1875 C 257.625 724.816406 263.246094 727.308594 268.925781 729.660156 C 274.605469 732.015625 280.339844 734.226562 286.128906 736.296875 C 291.917969 738.371094 297.753906 740.296875 303.636719 742.082031 C 309.519531 743.867188 315.445312 745.507812 321.410156 747 C 327.371094 748.496094 333.371094 749.84375 339.398438 751.042969 C 345.429688 752.242188 351.484375 753.292969 357.566406 754.195312 C 363.648438 755.097656 369.75 755.847656 375.867188 756.453125 C 381.984375 757.054688 388.113281 757.507812 394.253906 757.808594 C 400.394531 758.109375 406.539062 758.261719 412.6875 758.261719 C 418.835938 758.261719 424.980469 758.109375 431.121094 757.808594 C 437.261719 757.507812 443.390625 757.054688 449.511719 756.453125 C 455.628906 755.847656 461.730469 755.097656 467.8125 754.195312 C 473.894531 753.292969 479.949219 752.242188 485.976562 751.042969 C 492.007812 749.84375 498.003906 748.496094 503.96875 747 C 509.933594 745.507812 515.855469 743.867188 521.738281 742.082031 C 527.625 740.296875 533.460938 738.371094 539.25 736.296875 C 545.035156 734.226562 550.769531 732.015625 556.453125 729.660156 C 562.132812 727.308594 567.75 724.816406 573.308594 722.1875 C 578.867188 719.558594 584.355469 716.796875 589.777344 713.898438 C 595.199219 710.996094 600.546875 707.96875 605.820312 704.808594 C 611.09375 701.644531 616.289062 698.355469 621.398438 694.941406 C 626.511719 691.523438 631.539062 687.984375 636.476562 684.324219 C 641.414062 680.660156 646.257812 676.878906 651.011719 672.976562 C 655.765625 669.074219 660.417969 665.0625 664.972656 660.929688 C 669.527344 656.800781 673.980469 652.5625 678.328125 648.214844 C 682.675781 643.867188 686.914062 639.414062 691.042969 634.859375 C 695.171875 630.304688 699.1875 625.648438 703.085938 620.894531 C 706.984375 616.140625 710.769531 611.296875 714.429688 606.359375 C 718.09375 601.417969 721.632812 596.394531 725.046875 591.28125 C 728.464844 586.167969 731.75 580.972656 734.910156 575.699219 C 738.074219 570.425781 741.101562 565.078125 744 559.65625 C 746.898438 554.230469 749.660156 548.742188 752.289062 543.183594 C 754.917969 537.625 757.410156 532.003906 759.761719 526.324219 C 762.117188 520.644531 764.328125 514.90625 766.398438 509.117188 C 768.46875 503.328125 770.398438 497.492188 772.183594 491.609375 C 773.96875 485.722656 775.605469 479.800781 777.101562 473.835938 C 778.59375 467.871094 779.941406 461.871094 781.140625 455.839844 C 782.339844 449.8125 783.390625 443.753906 784.292969 437.671875 C 785.195312 431.589844 785.949219 425.488281 786.550781 419.371094 C 787.152344 413.25 787.605469 407.121094 787.90625 400.976562 C 788.207031 394.835938 788.359375 388.691406 788.359375 382.542969 C 788.359375 376.394531 788.207031 370.25 787.90625 364.105469 C 787.605469 357.964844 787.152344 351.835938 786.550781 345.714844 C 785.949219 339.597656 785.195312 333.496094 784.292969 327.414062 C 783.390625 321.332031 782.339844 315.273438 781.140625 309.242188 C 779.941406 303.210938 778.59375 297.214844 777.101562 291.25 C 775.605469 285.285156 773.96875 279.359375 772.183594 273.476562 C 770.398438 267.59375 768.46875 261.757812 766.398438 255.964844 C 764.328125 250.175781 762.117188 244.441406 759.761719 238.761719 C 757.410156 233.082031 754.917969 227.460938 752.289062 221.902344 C 749.660156 216.34375 746.898438 210.851562 744 205.429688 C 741.101562 200.007812 738.074219 194.660156 734.910156 189.382812 C 731.75 184.109375 728.464844 178.917969 725.046875 173.804688 C 721.632812 168.691406 718.09375 163.664062 714.429688 158.726562 C 710.769531 153.789062 706.984375 148.941406 703.085938 144.1875 C 699.1875 139.4375 695.171875 134.78125 691.042969 130.226562 C 686.914062 125.667969 682.675781 121.21875 678.328125 116.871094 C 673.980469 112.519531 669.527344 108.28125 664.972656 104.152344 C 660.417969 100.023438 655.765625 96.007812 651.011719 92.109375 C 646.257812 88.207031 641.414062 84.425781 636.476562 80.761719 C 631.539062 77.097656 626.511719 73.558594 621.398438 70.144531 C 616.289062 66.726562 611.09375 63.4375 605.820312 60.277344 C 600.546875 57.117188 595.199219 54.085938 589.777344 51.1875 C 584.355469 48.289062 578.867188 45.527344 573.308594 42.898438 C 567.75 40.269531 562.132812 37.777344 556.453125 35.421875 C 550.773438 33.070312 545.035156 30.859375 539.25 28.785156 C 533.460938 26.714844 527.625 24.785156 521.738281 23.003906 C 515.855469 21.21875 509.933594 19.578125 503.96875 18.082031 C 498.003906 16.589844 492.007812 15.242188 485.976562 14.042969 C 479.949219 12.84375 473.894531 11.792969 467.8125 10.890625 C 461.730469 9.988281 455.628906 9.234375 449.511719 8.632812 C 443.390625 8.03125 437.261719 7.578125 431.121094 7.277344 C 424.980469 6.976562 418.835938 6.824219 412.6875 6.824219 Z M 412.6875 6.824219 " fill-opacity="1" fill-rule="nonzero"/><path fill="#f1bc19" d="M 747.746094 -13.484375 C 746.417969 -13.484375 745.089844 -13.421875 743.765625 -13.289062 C 742.441406 -13.160156 741.128906 -12.964844 739.824219 -12.703125 C 738.519531 -12.445312 737.230469 -12.121094 735.957031 -11.734375 C 734.683594 -11.351562 733.433594 -10.902344 732.203125 -10.394531 C 730.976562 -9.882812 729.773438 -9.316406 728.601562 -8.6875 C 727.429688 -8.0625 726.289062 -7.378906 725.183594 -6.640625 C 724.078125 -5.902344 723.011719 -5.109375 721.980469 -4.265625 C 720.953125 -3.421875 719.96875 -2.527344 719.027344 -1.589844 C 718.089844 -0.648438 717.195312 0.335938 716.351562 1.363281 C 715.507812 2.394531 714.714844 3.460938 713.976562 4.566406 C 713.238281 5.671875 712.554688 6.8125 711.929688 7.984375 C 711.300781 9.160156 710.734375 10.359375 710.226562 11.589844 C 709.714844 12.816406 709.269531 14.070312 708.882812 15.34375 C 708.496094 16.613281 708.171875 17.902344 707.914062 19.207031 C 707.652344 20.511719 707.460938 21.828125 707.328125 23.152344 C 707.199219 24.476562 707.132812 25.800781 707.132812 27.132812 C 707.132812 28.464844 707.199219 29.789062 707.328125 31.113281 C 707.460938 32.4375 707.652344 33.753906 707.914062 35.058594 C 708.171875 36.363281 708.496094 37.652344 708.882812 38.921875 C 709.269531 40.195312 709.714844 41.449219 710.226562 42.675781 C 710.734375 43.90625 711.300781 45.105469 711.929688 46.28125 C 712.554688 47.453125 713.238281 48.59375 713.976562 49.699219 C 714.714844 50.804688 715.507812 51.871094 716.351562 52.902344 C 717.195312 53.929688 718.089844 54.914062 719.027344 55.855469 C 719.96875 56.796875 720.953125 57.6875 721.980469 58.53125 C 723.011719 59.375 724.078125 60.167969 725.183594 60.90625 C 726.289062 61.644531 727.429688 62.328125 728.601562 62.953125 C 729.773438 63.582031 730.976562 64.148438 732.203125 64.660156 C 733.433594 65.167969 734.683594 65.617188 735.957031 66.003906 C 737.230469 66.386719 738.519531 66.710938 739.824219 66.96875 C 741.128906 67.230469 742.441406 67.425781 743.765625 67.554688 C 745.089844 67.6875 746.417969 67.75 747.746094 67.75 C 749.078125 67.75 750.402344 67.6875 751.726562 67.554688 C 753.050781 67.425781 754.363281 67.230469 755.667969 66.96875 C 756.972656 66.710938 758.261719 66.386719 759.535156 66.003906 C 760.808594 65.617188 762.058594 65.167969 763.289062 64.660156 C 764.515625 64.148438 765.71875 63.582031 766.890625 62.953125 C 768.0625 62.328125 769.203125 61.644531 770.308594 60.90625 C 771.414062 60.167969 772.484375 59.375 773.511719 58.53125 C 774.539062 57.6875 775.523438 56.796875 776.464844 55.855469 C 777.40625 54.914062 778.296875 53.929688 779.140625 52.902344 C 779.984375 51.871094 780.777344 50.804688 781.515625 49.699219 C 782.253906 48.59375 782.9375 47.453125 783.5625 46.28125 C 784.191406 45.105469 784.757812 43.90625 785.269531 42.675781 C 785.777344 41.449219 786.222656 40.195312 786.609375 38.921875 C 786.996094 37.652344 787.320312 36.363281 787.578125 35.058594 C 787.839844 33.753906 788.035156 32.4375 788.164062 31.113281 C 788.292969 29.789062 788.359375 28.464844 788.359375 27.132812 C 788.359375 25.800781 788.292969 24.476562 788.164062 23.152344 C 788.035156 21.828125 787.839844 20.511719 787.578125 19.207031 C 787.320312 17.902344 786.996094 16.613281 786.609375 15.34375 C 786.222656 14.070312 785.777344 12.816406 785.269531 11.589844 C 784.757812 10.359375 784.191406 9.160156 783.5625 7.984375 C 782.9375 6.8125 782.253906 5.671875 781.515625 4.566406 C 780.777344 3.460938 779.984375 2.394531 779.140625 1.363281 C 778.296875 0.335938 777.40625 -0.648438 776.464844 -1.589844 C 775.523438 -2.527344 774.539062 -3.421875 773.511719 -4.265625 C 772.484375 -5.109375 771.414062 -5.902344 770.308594 -6.640625 C 769.203125 -7.378906 768.0625 -8.0625 766.890625 -8.6875 C 765.71875 -9.316406 764.515625 -9.882812 763.289062 -10.394531 C 762.058594 -10.902344 760.808594 -11.351562 759.535156 -11.734375 C 758.261719 -12.121094 756.972656 -12.445312 755.667969 -12.703125 C 754.363281 -12.964844 753.050781 -13.160156 751.726562 -13.289062 C 750.402344 -13.421875 749.078125 -13.484375 747.746094 -13.484375 Z M 747.746094 -13.484375 " fill-opacity="1" fill-rule="nonzero"/><path fill="#ee3e54" d="M 788.359375 98.214844 C 787.695312 98.214844 787.03125 98.246094 786.367188 98.3125 C 785.707031 98.378906 785.050781 98.476562 784.398438 98.605469 C 783.746094 98.734375 783.101562 98.894531 782.464844 99.089844 C 781.828125 99.28125 781.203125 99.507812 780.589844 99.761719 C 779.972656 100.015625 779.375 100.300781 778.785156 100.613281 C 778.199219 100.925781 777.628906 101.269531 777.078125 101.636719 C 776.523438 102.007812 775.992188 102.402344 775.476562 102.824219 C 774.964844 103.246094 774.46875 103.691406 774 104.164062 C 773.53125 104.632812 773.085938 105.125 772.664062 105.640625 C 772.242188 106.152344 771.84375 106.6875 771.476562 107.242188 C 771.105469 107.792969 770.765625 108.363281 770.449219 108.949219 C 770.136719 109.535156 769.851562 110.136719 769.597656 110.753906 C 769.34375 111.367188 769.121094 111.992188 768.925781 112.628906 C 768.734375 113.265625 768.574219 113.910156 768.441406 114.5625 C 768.3125 115.214844 768.214844 115.871094 768.152344 116.535156 C 768.085938 117.195312 768.054688 117.859375 768.054688 118.523438 C 768.054688 119.1875 768.085938 119.851562 768.152344 120.515625 C 768.214844 121.175781 768.3125 121.832031 768.441406 122.484375 C 768.574219 123.136719 768.734375 123.78125 768.925781 124.417969 C 769.121094 125.054688 769.34375 125.679688 769.597656 126.296875 C 769.851562 126.910156 770.136719 127.511719 770.449219 128.097656 C 770.765625 128.683594 771.105469 129.253906 771.476562 129.808594 C 771.84375 130.359375 772.242188 130.894531 772.664062 131.40625 C 773.085938 131.921875 773.53125 132.414062 774 132.882812 C 774.46875 133.355469 774.964844 133.800781 775.476562 134.222656 C 775.992188 134.644531 776.523438 135.039062 777.078125 135.410156 C 777.628906 135.78125 778.199219 136.121094 778.785156 136.433594 C 779.375 136.75 779.972656 137.03125 780.589844 137.285156 C 781.203125 137.542969 781.828125 137.765625 782.464844 137.957031 C 783.101562 138.152344 783.746094 138.3125 784.398438 138.441406 C 785.050781 138.574219 785.707031 138.671875 786.367188 138.734375 C 787.03125 138.800781 787.695312 138.832031 788.359375 138.832031 C 789.023438 138.832031 789.6875 138.800781 790.351562 138.734375 C 791.011719 138.671875 791.667969 138.574219 792.320312 138.441406 C 792.972656 138.3125 793.617188 138.152344 794.253906 137.957031 C 794.890625 137.765625 795.515625 137.542969 796.128906 137.285156 C 796.746094 137.03125 797.34375 136.75 797.929688 136.433594 C 798.519531 136.121094 799.085938 135.78125 799.640625 135.410156 C 800.195312 135.039062 800.726562 134.644531 801.242188 134.222656 C 801.753906 133.800781 802.246094 133.355469 802.71875 132.882812 C 803.1875 132.414062 803.632812 131.921875 804.054688 131.40625 C 804.476562 130.894531 804.875 130.359375 805.242188 129.808594 C 805.613281 129.253906 805.953125 128.683594 806.269531 128.097656 C 806.582031 127.511719 806.867188 126.910156 807.121094 126.296875 C 807.375 125.679688 807.597656 125.054688 807.792969 124.417969 C 807.984375 123.78125 808.144531 123.136719 808.277344 122.484375 C 808.40625 121.832031 808.503906 121.175781 808.566406 120.515625 C 808.632812 119.851562 808.664062 119.1875 808.664062 118.523438 C 808.664062 117.859375 808.632812 117.195312 808.566406 116.535156 C 808.503906 115.871094 808.40625 115.214844 808.277344 114.5625 C 808.144531 113.910156 807.984375 113.265625 807.792969 112.628906 C 807.597656 111.992188 807.375 111.367188 807.121094 110.753906 C 806.867188 110.136719 806.582031 109.535156 806.269531 108.949219 C 805.953125 108.363281 805.613281 107.792969 805.242188 107.242188 C 804.875 106.6875 804.476562 106.152344 804.054688 105.640625 C 803.632812 105.125 803.1875 104.632812 802.71875 104.164062 C 802.246094 103.691406 801.753906 103.246094 801.242188 102.824219 C 800.726562 102.402344 800.195312 102.007812 799.640625 101.636719 C 799.085938 101.269531 798.519531 100.925781 797.929688 100.613281 C 797.34375 100.300781 796.746094 100.015625 796.128906 99.761719 C 795.515625 99.507812 794.890625 99.28125 794.253906 99.089844 C 793.617188 98.894531 792.972656 98.734375 792.320312 98.605469 C 791.667969 98.476562 791.011719 98.378906 790.351562 98.3125 C 789.6875 98.246094 789.023438 98.214844 788.359375 98.214844 Z M 788.359375 98.214844 " fill-opacity="1" fill-rule="nonzero"/><path fill="#fbcd59" d="M 727.441406 626.25 C 726.773438 626.25 726.109375 626.285156 725.449219 626.347656 C 724.789062 626.414062 724.128906 626.511719 723.476562 626.640625 C 722.824219 626.773438 722.179688 626.933594 721.546875 627.125 C 720.910156 627.320312 720.28125 627.542969 719.667969 627.796875 C 719.054688 628.050781 718.453125 628.335938 717.867188 628.648438 C 717.28125 628.964844 716.710938 629.304688 716.15625 629.675781 C 715.605469 630.042969 715.070312 630.441406 714.558594 630.863281 C 714.042969 631.285156 713.550781 631.730469 713.082031 632.199219 C 712.609375 632.671875 712.164062 633.164062 711.742188 633.675781 C 711.320312 634.191406 710.925781 634.726562 710.554688 635.277344 C 710.1875 635.832031 709.84375 636.402344 709.53125 636.988281 C 709.21875 637.574219 708.933594 638.175781 708.679688 638.789062 C 708.425781 639.402344 708.199219 640.027344 708.007812 640.664062 C 707.816406 641.300781 707.652344 641.945312 707.523438 642.597656 C 707.394531 643.25 707.296875 643.910156 707.230469 644.570312 C 707.164062 645.230469 707.132812 645.894531 707.132812 646.5625 C 707.132812 647.226562 707.164062 647.890625 707.230469 648.550781 C 707.296875 649.214844 707.394531 649.871094 707.523438 650.523438 C 707.652344 651.175781 707.816406 651.820312 708.007812 652.457031 C 708.199219 653.09375 708.425781 653.71875 708.679688 654.332031 C 708.933594 654.949219 709.21875 655.546875 709.53125 656.132812 C 709.84375 656.722656 710.1875 657.289062 710.554688 657.84375 C 710.925781 658.398438 711.320312 658.929688 711.742188 659.445312 C 712.164062 659.960938 712.609375 660.453125 713.082031 660.921875 C 713.550781 661.390625 714.042969 661.839844 714.558594 662.261719 C 715.070312 662.683594 715.605469 663.078125 716.15625 663.445312 C 716.710938 663.816406 717.28125 664.160156 717.867188 664.472656 C 718.453125 664.785156 719.054688 665.070312 719.667969 665.324219 C 720.28125 665.578125 720.910156 665.800781 721.546875 665.996094 C 722.179688 666.1875 722.824219 666.351562 723.476562 666.480469 C 724.128906 666.609375 724.789062 666.707031 725.449219 666.773438 C 726.109375 666.835938 726.773438 666.871094 727.441406 666.871094 C 728.105469 666.871094 728.769531 666.835938 729.429688 666.773438 C 730.09375 666.707031 730.75 666.609375 731.402344 666.480469 C 732.054688 666.351562 732.699219 666.1875 733.335938 665.996094 C 733.972656 665.800781 734.597656 665.578125 735.210938 665.324219 C 735.824219 665.070312 736.425781 664.785156 737.011719 664.472656 C 737.597656 664.160156 738.167969 663.816406 738.722656 663.445312 C 739.273438 663.078125 739.808594 662.683594 740.320312 662.261719 C 740.835938 661.839844 741.328125 661.390625 741.796875 660.921875 C 742.269531 660.453125 742.714844 659.960938 743.136719 659.445312 C 743.558594 658.929688 743.953125 658.398438 744.324219 657.84375 C 744.695312 657.289062 745.035156 656.722656 745.347656 656.132812 C 745.660156 655.546875 745.945312 654.949219 746.199219 654.332031 C 746.453125 653.71875 746.679688 653.09375 746.871094 652.457031 C 747.066406 651.820312 747.226562 651.175781 747.355469 650.523438 C 747.484375 649.871094 747.582031 649.214844 747.648438 648.550781 C 747.714844 647.890625 747.746094 647.226562 747.746094 646.5625 C 747.746094 645.894531 747.714844 645.230469 747.648438 644.570312 C 747.582031 643.910156 747.484375 643.25 747.355469 642.597656 C 747.226562 641.945312 747.066406 641.300781 746.871094 640.664062 C 746.679688 640.027344 746.453125 639.402344 746.199219 638.789062 C 745.945312 638.175781 745.660156 637.574219 745.347656 636.988281 C 745.035156 636.402344 744.695312 635.832031 744.324219 635.277344 C 743.953125 634.726562 743.558594 634.191406 743.136719 633.675781 C 742.714844 633.164062 742.269531 632.671875 741.796875 632.199219 C 741.328125 631.730469 740.835938 631.285156 740.320312 630.863281 C 739.808594 630.441406 739.273438 630.042969 738.722656 629.675781 C 738.167969 629.304688 737.597656 628.964844 737.011719 628.648438 C 736.425781 628.335938 735.824219 628.050781 735.210938 627.796875 C 734.597656 627.542969 733.972656 627.320312 733.335938 627.125 C 732.699219 626.933594 732.054688 626.773438 731.402344 626.640625 C 730.75 626.511719 730.09375 626.414062 729.429688 626.347656 C 728.769531 626.285156 728.105469 626.25 727.441406 626.25 Z M 57.324219 473.933594 C 55.996094 473.933594 54.667969 474 53.34375 474.128906 C 52.019531 474.257812 50.707031 474.453125 49.402344 474.714844 C 48.097656 474.972656 46.808594 475.296875 45.535156 475.683594 C 44.261719 476.070312 43.011719 476.515625 41.78125 477.023438 C 40.554688 477.535156 39.351562 478.101562 38.179688 478.730469 C 37.007812 479.355469 35.867188 480.039062 34.761719 480.777344 C 33.65625 481.519531 32.589844 482.308594 31.558594 483.152344 C 30.53125 483.996094 29.546875 484.890625 28.605469 485.832031 C 27.667969 486.769531 26.773438 487.753906 25.929688 488.785156 C 25.085938 489.8125 24.296875 490.878906 23.554688 491.984375 C 22.816406 493.089844 22.132812 494.230469 21.507812 495.40625 C 20.878906 496.578125 20.3125 497.777344 19.804688 499.007812 C 19.292969 500.238281 18.847656 501.488281 18.460938 502.761719 C 18.074219 504.035156 17.75 505.324219 17.492188 506.628906 C 17.234375 507.933594 17.039062 509.246094 16.90625 510.570312 C 16.777344 511.894531 16.710938 513.222656 16.710938 514.550781 C 16.710938 515.882812 16.777344 517.210938 16.90625 518.53125 C 17.039062 519.855469 17.234375 521.171875 17.492188 522.476562 C 17.75 523.78125 18.074219 525.070312 18.460938 526.34375 C 18.847656 527.617188 19.292969 528.867188 19.804688 530.09375 C 20.3125 531.324219 20.878906 532.527344 21.507812 533.699219 C 22.132812 534.871094 22.816406 536.011719 23.554688 537.117188 C 24.296875 538.222656 25.085938 539.292969 25.929688 540.320312 C 26.773438 541.347656 27.667969 542.332031 28.605469 543.273438 C 29.546875 544.214844 30.53125 545.105469 31.558594 545.949219 C 32.589844 546.792969 33.65625 547.585938 34.761719 548.324219 C 35.867188 549.0625 37.007812 549.746094 38.179688 550.375 C 39.351562 551 40.554688 551.570312 41.78125 552.078125 C 43.011719 552.585938 44.261719 553.035156 45.535156 553.421875 C 46.808594 553.808594 48.097656 554.128906 49.402344 554.390625 C 50.707031 554.648438 52.019531 554.84375 53.34375 554.972656 C 54.667969 555.105469 55.996094 555.167969 57.324219 555.167969 C 58.65625 555.167969 59.980469 555.105469 61.304688 554.972656 C 62.628906 554.84375 63.945312 554.648438 65.25 554.390625 C 66.550781 554.128906 67.839844 553.808594 69.113281 553.421875 C 70.386719 553.035156 71.636719 552.585938 72.867188 552.078125 C 74.09375 551.570312 75.296875 551 76.46875 550.375 C 77.644531 549.746094 78.78125 549.0625 79.886719 548.324219 C 80.996094 547.585938 82.0625 546.792969 83.089844 545.949219 C 84.117188 545.105469 85.101562 544.214844 86.042969 543.273438 C 86.984375 542.332031 87.875 541.347656 88.71875 540.320312 C 89.5625 539.292969 90.355469 538.222656 91.09375 537.117188 C 91.832031 536.011719 92.515625 534.871094 93.140625 533.699219 C 93.769531 532.527344 94.335938 531.324219 94.847656 530.09375 C 95.355469 528.867188 95.804688 527.617188 96.1875 526.34375 C 96.574219 525.070312 96.898438 523.78125 97.15625 522.476562 C 97.417969 521.171875 97.613281 519.855469 97.742188 518.53125 C 97.871094 517.210938 97.9375 515.882812 97.9375 514.550781 C 97.9375 513.222656 97.871094 511.894531 97.742188 510.570312 C 97.613281 509.246094 97.417969 507.933594 97.15625 506.628906 C 96.898438 505.324219 96.574219 504.035156 96.1875 502.761719 C 95.804688 501.488281 95.355469 500.238281 94.847656 499.007812 C 94.335938 497.777344 93.769531 496.578125 93.140625 495.40625 C 92.515625 494.230469 91.832031 493.089844 91.09375 491.984375 C 90.355469 490.878906 89.5625 489.8125 88.71875 488.785156 C 87.875 487.753906 86.984375 486.769531 86.042969 485.832031 C 85.101562 484.890625 84.117188 483.996094 83.089844 483.152344 C 82.0625 482.308594 80.996094 481.519531 79.886719 480.777344 C 78.78125 480.039062 77.644531 479.355469 76.46875 478.730469 C 75.296875 478.101562 74.09375 477.535156 72.867188 477.023438 C 71.636719 476.515625 70.386719 476.070312 69.113281 475.683594 C 67.839844 475.296875 66.550781 474.972656 65.25 474.714844 C 63.945312 474.453125 62.628906 474.257812 61.304688 474.128906 C 59.980469 474 58.65625 473.933594 57.324219 473.933594 Z M 57.324219 473.933594 " fill-opacity="1" fill-rule="nonzero"/><path fill="#ee3e54" d="M 158.859375 737.953125 C 158.191406 737.953125 157.527344 737.984375 156.867188 738.050781 C 156.207031 738.113281 155.546875 738.210938 154.894531 738.34375 C 154.242188 738.472656 153.597656 738.632812 152.960938 738.828125 C 152.328125 739.019531 151.699219 739.242188 151.085938 739.496094 C 150.472656 739.753906 149.871094 740.035156 149.285156 740.351562 C 148.699219 740.664062 148.128906 741.003906 147.574219 741.375 C 147.023438 741.742188 146.488281 742.140625 145.976562 742.5625 C 145.460938 742.984375 144.96875 743.429688 144.5 743.898438 C 144.027344 744.371094 143.582031 744.863281 143.160156 745.378906 C 142.738281 745.890625 142.34375 746.425781 141.972656 746.976562 C 141.605469 747.53125 141.261719 748.101562 140.949219 748.6875 C 140.636719 749.273438 140.351562 749.875 140.097656 750.488281 C 139.84375 751.101562 139.617188 751.730469 139.425781 752.367188 C 139.230469 753.003906 139.070312 753.648438 138.941406 754.300781 C 138.8125 754.953125 138.714844 755.609375 138.648438 756.269531 C 138.582031 756.933594 138.550781 757.597656 138.550781 758.261719 C 138.550781 758.925781 138.582031 759.589844 138.648438 760.25 C 138.714844 760.914062 138.8125 761.570312 138.941406 762.222656 C 139.070312 762.875 139.230469 763.519531 139.425781 764.15625 C 139.617188 764.792969 139.84375 765.417969 140.097656 766.03125 C 140.351562 766.648438 140.636719 767.246094 140.949219 767.835938 C 141.261719 768.421875 141.605469 768.992188 141.972656 769.542969 C 142.34375 770.097656 142.738281 770.628906 143.160156 771.144531 C 143.582031 771.660156 144.027344 772.152344 144.5 772.621094 C 144.96875 773.09375 145.460938 773.539062 145.976562 773.960938 C 146.488281 774.382812 147.023438 774.777344 147.574219 775.148438 C 148.128906 775.515625 148.699219 775.859375 149.285156 776.171875 C 149.871094 776.484375 150.472656 776.769531 151.085938 777.023438 C 151.699219 777.277344 152.328125 777.503906 152.960938 777.695312 C 153.597656 777.890625 154.242188 778.050781 154.894531 778.179688 C 155.546875 778.308594 156.207031 778.40625 156.867188 778.472656 C 157.527344 778.539062 158.191406 778.570312 158.859375 778.570312 C 159.523438 778.570312 160.1875 778.539062 160.847656 778.472656 C 161.507812 778.40625 162.167969 778.308594 162.820312 778.179688 C 163.472656 778.050781 164.117188 777.890625 164.753906 777.695312 C 165.386719 777.503906 166.015625 777.277344 166.628906 777.023438 C 167.242188 776.769531 167.84375 776.484375 168.429688 776.171875 C 169.015625 775.859375 169.585938 775.515625 170.140625 775.148438 C 170.691406 774.777344 171.226562 774.382812 171.738281 773.960938 C 172.253906 773.539062 172.746094 773.09375 173.214844 772.621094 C 173.6875 772.152344 174.132812 771.660156 174.554688 771.144531 C 174.976562 770.628906 175.371094 770.097656 175.742188 769.542969 C 176.109375 768.992188 176.453125 768.421875 176.765625 767.835938 C 177.078125 767.246094 177.363281 766.648438 177.617188 766.03125 C 177.871094 765.417969 178.097656 764.792969 178.289062 764.15625 C 178.484375 763.519531 178.644531 762.875 178.773438 762.222656 C 178.902344 761.570312 179 760.914062 179.066406 760.25 C 179.132812 759.589844 179.164062 758.925781 179.164062 758.261719 C 179.164062 757.597656 179.132812 756.933594 179.066406 756.269531 C 179 755.609375 178.902344 754.953125 178.773438 754.300781 C 178.644531 753.648438 178.484375 753.003906 178.289062 752.367188 C 178.097656 751.730469 177.871094 751.101562 177.617188 750.488281 C 177.363281 749.875 177.078125 749.273438 176.765625 748.6875 C 176.453125 748.101562 176.109375 747.53125 175.742188 746.976562 C 175.371094 746.425781 174.976562 745.890625 174.554688 745.378906 C 174.132812 744.863281 173.6875 744.371094 173.214844 743.898438 C 172.746094 743.429688 172.253906 742.984375 171.738281 742.5625 C 171.226562 742.140625 170.691406 741.742188 170.140625 741.375 C 169.585938 741.003906 169.015625 740.664062 168.429688 740.351562 C 167.84375 740.035156 167.242188 739.753906 166.628906 739.496094 C 166.015625 739.242188 165.386719 739.019531 164.753906 738.828125 C 164.117188 738.632812 163.472656 738.472656 162.820312 738.34375 C 162.167969 738.210938 161.507812 738.113281 160.847656 738.050781 C 160.1875 737.984375 159.523438 737.953125 158.859375 737.953125 Z M 158.859375 737.953125 " fill-opacity="1" fill-rule="nonzero"/><path fill="#ffffff" d="M 92.859375 392.695312 C 92.03125 392.695312 91.199219 392.738281 90.375 392.820312 C 89.546875 392.902344 88.726562 393.023438 87.910156 393.183594 C 87.09375 393.347656 86.289062 393.546875 85.492188 393.789062 C 84.699219 394.03125 83.914062 394.3125 83.148438 394.628906 C 82.378906 394.949219 81.628906 395.300781 80.894531 395.695312 C 80.164062 396.085938 79.449219 396.511719 78.757812 396.976562 C 78.066406 397.4375 77.402344 397.933594 76.757812 398.460938 C 76.117188 398.988281 75.5 399.542969 74.914062 400.132812 C 74.324219 400.71875 73.765625 401.335938 73.238281 401.976562 C 72.710938 402.621094 72.21875 403.289062 71.757812 403.980469 C 71.292969 404.671875 70.867188 405.382812 70.476562 406.117188 C 70.082031 406.847656 69.726562 407.601562 69.410156 408.367188 C 69.09375 409.136719 68.8125 409.917969 68.570312 410.714844 C 68.328125 411.507812 68.128906 412.316406 67.964844 413.128906 C 67.804688 413.945312 67.683594 414.769531 67.601562 415.59375 C 67.519531 416.421875 67.476562 417.253906 67.476562 418.082031 C 67.476562 418.914062 67.519531 419.746094 67.601562 420.570312 C 67.683594 421.398438 67.804688 422.21875 67.964844 423.035156 C 68.128906 423.851562 68.328125 424.65625 68.570312 425.453125 C 68.8125 426.25 69.09375 427.03125 69.410156 427.796875 C 69.726562 428.566406 70.082031 429.316406 70.476562 430.050781 C 70.867188 430.785156 71.292969 431.496094 71.757812 432.1875 C 72.21875 432.878906 72.710938 433.546875 73.238281 434.1875 C 73.765625 434.832031 74.324219 435.445312 74.914062 436.035156 C 75.5 436.621094 76.117188 437.179688 76.757812 437.707031 C 77.402344 438.234375 78.066406 438.730469 78.757812 439.191406 C 79.449219 439.652344 80.164062 440.082031 80.894531 440.472656 C 81.628906 440.863281 82.378906 441.21875 83.148438 441.539062 C 83.914062 441.855469 84.699219 442.136719 85.492188 442.375 C 86.289062 442.617188 87.09375 442.820312 87.910156 442.980469 C 88.726562 443.144531 89.546875 443.265625 90.375 443.347656 C 91.199219 443.429688 92.03125 443.46875 92.859375 443.46875 C 93.691406 443.46875 94.523438 443.429688 95.347656 443.347656 C 96.175781 443.265625 96.996094 443.144531 97.8125 442.980469 C 98.628906 442.820312 99.433594 442.617188 100.230469 442.375 C 101.023438 442.136719 101.808594 441.855469 102.574219 441.539062 C 103.34375 441.21875 104.09375 440.863281 104.828125 440.472656 C 105.558594 440.082031 106.273438 439.652344 106.964844 439.191406 C 107.65625 438.730469 108.320312 438.234375 108.964844 437.707031 C 109.605469 437.179688 110.222656 436.621094 110.808594 436.035156 C 111.398438 435.445312 111.957031 434.832031 112.484375 434.1875 C 113.011719 433.546875 113.503906 432.878906 113.964844 432.1875 C 114.429688 431.496094 114.855469 430.785156 115.246094 430.050781 C 115.640625 429.316406 115.992188 428.566406 116.3125 427.796875 C 116.628906 427.03125 116.910156 426.25 117.152344 425.453125 C 117.394531 424.65625 117.59375 423.851562 117.757812 423.035156 C 117.917969 422.21875 118.039062 421.398438 118.121094 420.570312 C 118.203125 419.746094 118.246094 418.914062 118.246094 418.082031 C 118.246094 417.253906 118.203125 416.421875 118.121094 415.59375 C 118.039062 414.769531 117.917969 413.945312 117.757812 413.128906 C 117.59375 412.316406 117.394531 411.507812 117.152344 410.714844 C 116.910156 409.917969 116.628906 409.136719 116.3125 408.367188 C 115.992188 407.601562 115.640625 406.847656 115.246094 406.117188 C 114.855469 405.382812 114.429688 404.671875 113.964844 403.980469 C 113.503906 403.289062 113.011719 402.621094 112.484375 401.976562 C 111.957031 401.335938 111.398438 400.71875 110.808594 400.132812 C 110.222656 399.542969 109.605469 398.988281 108.964844 398.460938 C 108.320312 397.933594 107.65625 397.4375 106.964844 396.976562 C 106.273438 396.511719 105.558594 396.085938 104.828125 395.695312 C 104.09375 395.300781 103.34375 394.949219 102.574219 394.628906 C 101.808594 394.3125 101.023438 394.03125 100.230469 393.789062 C 99.433594 393.546875 98.628906 393.347656 97.8125 393.183594 C 96.996094 393.023438 96.175781 392.902344 95.347656 392.820312 C 94.523438 392.738281 93.691406 392.695312 92.859375 392.695312 Z M 92.859375 392.695312 " fill-opacity="1" fill-rule="nonzero"/><path fill="#f1bc19" d="M 118.246094 545.015625 C 117.578125 545.015625 116.917969 545.082031 116.261719 545.210938 C 115.609375 545.339844 114.976562 545.53125 114.359375 545.789062 C 113.742188 546.042969 113.15625 546.355469 112.605469 546.726562 C 112.050781 547.097656 111.535156 547.519531 111.066406 547.988281 C 110.59375 548.460938 110.171875 548.972656 109.800781 549.527344 C 109.433594 550.082031 109.121094 550.667969 108.863281 551.285156 C 108.609375 551.898438 108.417969 552.535156 108.285156 553.1875 C 108.15625 553.84375 108.089844 554.503906 108.089844 555.167969 C 108.089844 555.835938 108.15625 556.496094 108.285156 557.152344 C 108.417969 557.804688 108.609375 558.441406 108.863281 559.054688 C 109.121094 559.671875 109.433594 560.257812 109.800781 560.8125 C 110.171875 561.367188 110.59375 561.878906 111.066406 562.351562 C 111.535156 562.820312 112.050781 563.242188 112.605469 563.613281 C 113.15625 563.984375 113.742188 564.296875 114.359375 564.550781 C 114.976562 564.804688 115.609375 565 116.261719 565.128906 C 116.917969 565.257812 117.578125 565.324219 118.246094 565.324219 C 118.910156 565.324219 119.570312 565.257812 120.226562 565.128906 C 120.878906 565 121.515625 564.804688 122.128906 564.550781 C 122.746094 564.296875 123.332031 563.984375 123.886719 563.613281 C 124.441406 563.242188 124.953125 562.820312 125.425781 562.351562 C 125.894531 561.878906 126.316406 561.367188 126.6875 560.8125 C 127.058594 560.257812 127.371094 559.671875 127.625 559.054688 C 127.878906 558.441406 128.074219 557.804688 128.203125 557.152344 C 128.332031 556.496094 128.398438 555.835938 128.398438 555.167969 C 128.398438 554.503906 128.332031 553.84375 128.203125 553.1875 C 128.074219 552.535156 127.878906 551.898438 127.625 551.285156 C 127.371094 550.667969 127.058594 550.082031 126.6875 549.527344 C 126.316406 548.972656 125.894531 548.460938 125.425781 547.988281 C 124.953125 547.519531 124.441406 547.097656 123.886719 546.726562 C 123.332031 546.355469 122.746094 546.042969 122.128906 545.789062 C 121.515625 545.53125 120.878906 545.339844 120.226562 545.210938 C 119.570312 545.082031 118.910156 545.015625 118.246094 545.015625 Z M 118.246094 545.015625 " fill-opacity="1" fill-rule="nonzero"/><path fill="#ffffff" d="M 717.285156 209.914062 C 716.621094 209.914062 715.960938 209.980469 715.304688 210.109375 C 714.652344 210.238281 714.015625 210.433594 713.402344 210.6875 C 712.785156 210.941406 712.199219 211.257812 711.644531 211.625 C 711.089844 211.996094 710.578125 212.417969 710.105469 212.890625 C 709.636719 213.359375 709.214844 213.875 708.84375 214.429688 C 708.472656 214.980469 708.160156 215.566406 707.90625 216.183594 C 707.652344 216.800781 707.457031 217.433594 707.328125 218.089844 C 707.199219 218.742188 707.132812 219.402344 707.132812 220.070312 C 707.132812 220.734375 707.199219 221.398438 707.328125 222.050781 C 707.457031 222.703125 707.652344 223.339844 707.90625 223.957031 C 708.160156 224.570312 708.472656 225.15625 708.84375 225.710938 C 709.214844 226.265625 709.636719 226.777344 710.105469 227.25 C 710.578125 227.722656 711.089844 228.140625 711.644531 228.511719 C 712.199219 228.882812 712.785156 229.195312 713.402344 229.449219 C 714.015625 229.707031 714.652344 229.898438 715.304688 230.027344 C 715.960938 230.160156 716.621094 230.222656 717.285156 230.222656 C 717.953125 230.222656 718.613281 230.160156 719.265625 230.027344 C 719.921875 229.898438 720.554688 229.707031 721.171875 229.449219 C 721.789062 229.195312 722.371094 228.882812 722.925781 228.511719 C 723.480469 228.140625 723.996094 227.722656 724.464844 227.25 C 724.9375 226.777344 725.359375 226.265625 725.726562 225.710938 C 726.097656 225.15625 726.410156 224.570312 726.667969 223.957031 C 726.921875 223.339844 727.113281 222.703125 727.246094 222.050781 C 727.375 221.398438 727.441406 220.734375 727.441406 220.070312 C 727.441406 219.402344 727.375 218.742188 727.246094 218.089844 C 727.113281 217.433594 726.921875 216.800781 726.667969 216.183594 C 726.410156 215.566406 726.097656 214.980469 725.726562 214.429688 C 725.359375 213.875 724.9375 213.359375 724.464844 212.890625 C 723.996094 212.417969 723.480469 211.996094 722.925781 211.625 C 722.371094 211.257812 721.789062 210.941406 721.171875 210.6875 C 720.554688 210.433594 719.921875 210.238281 719.265625 210.109375 C 718.613281 209.980469 717.953125 209.914062 717.285156 209.914062 Z M 717.285156 209.914062 " fill-opacity="1" fill-rule="nonzero"/><path fill="#e5ac80" d="M 596.675781 590.976562 C 592.5625 569.183594 583.679688 556.417969 562.742188 550.09375 C 561.828125 549.820312 560.613281 549.371094 559.242188 548.84375 C 557.65625 548.152344 555.648438 547.339844 553.292969 546.425781 C 540.609375 541.066406 465.230469 513.25 465.230469 513.25 C 459.019531 511.679688 454.976562 507.25 452.640625 502.265625 C 448.785156 494.03125 450.277344 472.675781 450.277344 472.675781 C 450.277344 472.675781 418.761719 483.457031 399.09375 487.132812 C 379.800781 489.011719 338.347656 464.0625 338.347656 464.0625 C 338.347656 464.0625 337.371094 494.902344 336.0625 501.757812 C 335.027344 507.140625 329.238281 511.6875 323.027344 513.261719 L 250.695312 539.492188 C 242.691406 541.582031 235.015625 544.570312 228.265625 548.742188 C 210.058594 559.984375 200.839844 576.859375 196.148438 590.984375 C 196.148438 590.984375 191.386719 624.65625 191.582031 625.867188 C 191.132812 630.578125 190.667969 635.765625 190.191406 641.21875 C 269.019531 694.601562 332.335938 709.558594 440.964844 704.808594 C 490.320312 702.644531 563.808594 678.273438 602.3125 658.835938 C 600.269531 615.933594 596.675781 590.976562 596.675781 590.976562 Z M 596.675781 590.976562 " fill-opacity="1" fill-rule="nonzero"/><path fill="#fdfcef" d="M 562.742188 551.898438 C 561.828125 551.625 560.613281 551.179688 559.242188 550.652344 C 557.65625 549.960938 555.648438 549.148438 553.292969 548.234375 C 545.441406 544.914062 513.644531 533.023438 490.503906 524.421875 L 489.417969 524.136719 C 463.871094 537.238281 427.523438 556.894531 394.140625 556.894531 C 360.753906 556.894531 327.28125 539.125 298.859375 524.136719 L 295.671875 524.980469 L 250.683594 541.289062 C 242.683594 543.378906 235.007812 546.367188 228.253906 550.539062 C 210.050781 561.78125 200.832031 578.65625 196.140625 592.78125 C 196.140625 592.78125 191.378906 626.453125 191.570312 627.664062 C 191.125 632.375 190.65625 682.945312 190.179688 688.398438 C 269.011719 741.78125 332.324219 756.738281 440.957031 751.984375 C 490.308594 749.824219 563.800781 725.453125 602.300781 706.015625 C 600.261719 663.121094 596.675781 592.78125 596.675781 592.78125 C 592.5625 570.992188 583.679688 558.226562 562.742188 551.898438 Z M 562.742188 551.898438 " fill-opacity="1" fill-rule="nonzero"/><path fill="#e1e0d8" d="M 259.40625 731.363281 C 257.71875 731.363281 256.359375 730 256.359375 728.316406 L 256.359375 688.214844 C 256.359375 686.527344 257.71875 685.167969 259.40625 685.167969 C 261.089844 685.167969 262.449219 686.527344 262.449219 688.214844 L 262.449219 728.316406 C 262.449219 730 261.089844 731.363281 259.40625 731.363281 Z M 526.71875 738.410156 C 525.035156 738.410156 523.675781 737.046875 523.675781 735.363281 L 523.675781 688.203125 C 523.675781 686.519531 525.035156 685.160156 526.71875 685.160156 C 528.40625 685.160156 529.765625 686.519531 529.765625 688.203125 L 529.765625 735.363281 C 529.765625 737.046875 528.40625 738.410156 526.71875 738.410156 Z M 526.71875 738.410156 " fill-opacity="1" fill-rule="nonzero"/><path fill="#66798f" d="M 413.847656 613.984375 L 435.257812 752.808594 L 349.503906 752.808594 L 370.917969 613.984375 C 380.460938 596.683594 404.300781 596.683594 413.847656 613.984375 Z M 413.847656 613.984375 " fill-opacity="1" fill-rule="nonzero"/><path fill="#97aec7" d="M 372.542969 594.578125 L 352.742188 551.371094 L 432.019531 551.371094 L 412.222656 594.578125 C 403.410156 609.851562 381.355469 609.851562 372.542969 594.578125 Z M 372.542969 594.578125 " fill-opacity="1" fill-rule="nonzero"/><path fill="#eaeae8" d="M 320.660156 511.261719 L 296.414062 528.007812 L 348.398438 606.460938 L 396.617188 546.648438 C 396.617188 546.648438 324.222656 528.007812 320.660156 511.261719 Z M 320.660156 511.261719 " fill-opacity="1" fill-rule="nonzero"/><path fill="#eaeae8" d="M 464.105469 511.261719 L 488.351562 528.007812 L 436.367188 606.460938 L 388.148438 546.648438 C 388.148438 546.648438 460.542969 528.007812 464.105469 511.261719 Z M 464.105469 511.261719 " fill-opacity="1" fill-rule="nonzero"/><path fill="#edbc94" d="M 518.464844 323.382812 C 517.277344 323.300781 516.070312 323.289062 514.808594 323.289062 C 505.011719 322.824219 502.21875 326.683594 502.667969 320.691406 C 503.457031 310.070312 501.957031 266.972656 501.957031 264.800781 C 501.957031 220.140625 454.714844 183.726562 395.691406 181.707031 L 395.691406 181.574219 C 395.296875 181.582031 394.910156 181.625 394.503906 181.632812 C 394.109375 181.625 393.722656 181.574219 393.316406 181.574219 L 393.316406 181.707031 C 334.285156 183.726562 287.050781 220.140625 287.050781 264.800781 C 287.050781 266.972656 285.550781 310.070312 286.339844 320.691406 C 286.789062 326.671875 283.996094 322.8125 274.199219 323.289062 C 272.9375 323.289062 271.730469 323.300781 270.542969 323.382812 C 259.800781 324.09375 251.109375 330.835938 249.25 339.191406 C 250.570312 339.984375 255.457031 376.582031 263.375 391 C 267.800781 399.054688 274.707031 400.171875 281.804688 405.371094 C 285.734375 408.253906 286.492188 411.492188 287.570312 415.796875 C 291.550781 431.730469 302.605469 445.277344 314.71875 456.84375 C 320.699219 462.550781 360.398438 504.316406 394.503906 502.203125 C 428.773438 500.933594 468.308594 462.550781 474.289062 456.84375 C 486.402344 445.277344 497.457031 431.730469 501.4375 415.796875 C 502.515625 411.492188 503.265625 408.242188 507.207031 405.371094 C 514.300781 400.171875 521.207031 399.054688 525.632812 391 C 533.554688 376.582031 538.445312 339.984375 539.757812 339.191406 C 537.898438 330.835938 529.207031 324.082031 518.464844 323.382812 Z M 518.464844 323.382812 " fill-opacity="1" fill-rule="nonzero"/><path fill="#512c2b" d="M 395.113281 403.449219 C 402.046875 403.449219 408.769531 400.425781 413.09375 395.359375 C 413.53125 394.851562 413.46875 394.078125 412.964844 393.640625 C 412.457031 393.203125 411.695312 393.253906 411.246094 393.761719 C 407.722656 397.792969 401.835938 400.109375 395.113281 400.109375 C 388.382812 400.109375 382.503906 397.792969 378.980469 393.761719 C 378.738281 393.488281 378.402344 393.347656 378.054688 393.347656 C 377.773438 393.347656 377.488281 393.449219 377.265625 393.640625 C 376.757812 394.078125 376.695312 394.851562 377.132812 395.359375 C 381.457031 400.425781 388.179688 403.449219 395.113281 403.449219 Z M 373 299.609375 L 377.394531 291.160156 C 358.796875 286.804688 337.382812 287.496094 319.707031 292.980469 L 325.25 301.214844 C 339.777344 296.421875 357.648438 295.8125 373 299.609375 Z M 466.117188 299.609375 L 470.511719 291.160156 C 451.910156 286.804688 430.496094 287.496094 412.820312 292.980469 L 418.363281 301.214844 C 432.902344 296.421875 450.773438 295.8125 466.117188 299.609375 Z M 346.226562 311.53125 C 341.757812 311.53125 337.839844 314.488281 335.574219 318.953125 C 336.144531 318.78125 336.722656 318.660156 337.339844 318.660156 C 341.007812 318.660156 343.972656 321.980469 343.972656 326.0625 C 343.972656 330.15625 340.996094 333.464844 337.339844 333.464844 C 336.144531 333.464844 335.035156 333.078125 334.0625 332.460938 C 335.625 339.171875 340.480469 344.058594 346.234375 344.058594 C 353.25 344.058594 358.949219 336.777344 358.949219 327.789062 C 358.9375 318.824219 353.242188 311.53125 346.226562 311.53125 Z M 443.464844 311.53125 C 439.644531 311.53125 436.234375 313.695312 433.910156 317.097656 C 434.640625 316.792969 435.421875 316.597656 436.246094 316.597656 C 439.910156 316.597656 442.875 319.917969 442.875 324 C 442.875 328.09375 439.898438 331.402344 436.246094 331.402344 C 433.96875 331.402344 431.96875 330.125 430.773438 328.175781 C 430.933594 336.980469 436.550781 344.046875 443.464844 344.046875 C 450.480469 344.046875 456.175781 336.765625 456.175781 327.777344 C 456.164062 318.824219 450.480469 311.53125 443.464844 311.53125 Z M 448.855469 422.296875 C 449.371094 421.871094 449.453125 421.109375 449.039062 420.589844 C 448.621094 420.074219 447.847656 419.980469 447.320312 420.410156 C 435.867188 429.539062 416.839844 434.777344 395.125 434.777344 C 373.40625 434.777344 354.378906 429.539062 342.914062 420.398438 C 342.691406 420.214844 342.429688 420.132812 342.152344 420.132812 C 341.800781 420.132812 341.445312 420.285156 341.199219 420.589844 C 340.785156 421.109375 340.855469 421.882812 341.371094 422.308594 C 354.308594 432.878906 374.402344 439.195312 395.113281 439.195312 C 415.828125 439.183594 435.910156 432.878906 448.855469 422.296875 Z M 448.855469 422.296875 " fill-opacity="1" fill-rule="nonzero"/><path fill="#472b29" d="M 405.855469 756.859375 C 315.625 756.859375 257.40625 738.824219 187.90625 691.757812 C 186.6875 690.9375 186.007812 689.515625 186.140625 688.050781 C 186.230469 686.945312 186.28125 683.1875 186.363281 677.753906 C 186.6875 655.640625 187.378906 609.628906 192.230469 591.714844 C 198.789062 567.496094 208.386719 558.035156 226.132812 547.078125 C 232.773438 542.984375 240.691406 539.714844 249.667969 537.367188 L 321.632812 511.25 C 327.085938 509.839844 331.402344 506.265625 332.0625 502.804688 C 332.367188 501.25 332.957031 496.40625 333.65625 481.40625 C 323.003906 473.902344 314.335938 467.121094 311.878906 464.714844 C 296.171875 449.347656 287.195312 435.367188 283.621094 420.714844 C 282.523438 416.214844 281.957031 414.246094 279.367188 412.296875 C 277.234375 410.699219 275.101562 409.511719 273.070312 408.367188 C 268.289062 405.664062 263.34375 402.882812 259.800781 396.261719 C 251.355469 380.5 245.191406 350.75 245.191406 341.242188 C 247.578125 329.800781 257.851562 321.828125 270.269531 320.984375 C 271.539062 320.90625 272.839844 320.882812 274.1875 320.882812 C 277.570312 320.730469 280.269531 321.066406 282.210938 321.359375 C 281.703125 311.105469 282.492188 282.722656 282.847656 270.3125 C 282.929688 267.378906 282.992188 265.441406 282.992188 265.023438 C 282.992188 217.417969 330.875 178.386719 392.191406 175.835938 C 392.554688 175.726562 392.929688 175.664062 393.316406 175.664062 C 393.417969 175.664062 394.261719 175.714844 394.371094 175.726562 L 395.691406 175.664062 C 396.097656 175.664062 396.496094 175.726562 396.859375 175.847656 C 458.15625 178.40625 506.019531 217.429688 506.019531 265.023438 C 506.019531 265.441406 506.070312 267.378906 506.160156 270.3125 C 506.503906 282.734375 507.296875 311.117188 506.800781 321.359375 C 508.75 321.078125 511.492188 320.722656 515.023438 320.894531 C 516.140625 320.914062 517.460938 320.902344 518.738281 320.984375 C 531.167969 321.828125 541.433594 329.800781 543.726562 340.378906 C 543.816406 352.199219 537.269531 381.210938 529.207031 396.25 C 525.652344 402.882812 520.71875 405.675781 515.9375 408.367188 C 513.90625 409.503906 511.773438 410.691406 509.632812 412.304688 C 507.042969 414.246094 506.464844 416.234375 505.429688 420.511719 C 501.804688 435.375 492.828125 449.359375 477.121094 464.722656 C 474.523438 467.261719 465.210938 474.835938 454.054688 482.871094 C 453.992188 492.089844 454.792969 499.136719 456.316406 502.367188 C 457.832031 505.605469 460.785156 509.769531 466.238281 511.140625 C 469.71875 512.398438 542.253906 539.167969 554.886719 544.519531 C 557.179688 545.402344 559.230469 546.234375 560.84375 546.933594 C 561.960938 547.351562 563.097656 547.765625 563.941406 548.019531 C 585.070312 554.398438 596.058594 567.558594 600.675781 592.03125 C 600.707031 592.214844 600.726562 592.398438 600.738281 592.578125 C 600.738281 592.578125 604.332031 662.929688 606.363281 705.824219 C 606.445312 707.417969 605.570312 708.921875 604.140625 709.640625 C 563.179688 730.316406 489.222656 753.933594 441.136719 756.039062 C 428.824219 756.574219 417.085938 756.859375 405.855469 756.859375 Z M 194.332031 686.296875 C 269.984375 737.078125 332.5 752.65625 440.78125 747.921875 C 486.890625 745.902344 557.496094 723.5625 598.128906 703.558594 C 596.15625 662.097656 592.878906 597.992188 592.644531 593.269531 C 588.542969 571.8125 579.8125 561.304688 561.578125 555.800781 C 560.589844 555.503906 559.269531 555.027344 557.789062 554.460938 C 556.082031 553.726562 554.125 552.9375 551.828125 552.042969 C 539.257812 546.722656 464.582031 519.160156 463.832031 518.878906 C 457.585938 517.324219 452.164062 512.632812 448.964844 505.808594 C 446.742188 501.046875 445.726562 492.597656 445.972656 480.675781 C 445.992188 479.386719 446.632812 478.199219 447.675781 477.445312 C 460.042969 468.644531 469.40625 460.90625 471.457031 458.90625 C 486.027344 444.65625 494.300781 431.914062 497.5 418.792969 C 498.667969 413.960938 499.734375 409.59375 504.769531 405.816406 C 507.214844 403.980469 509.632812 402.609375 511.957031 401.296875 C 516.242188 398.882812 519.621094 396.972656 522.058594 392.421875 C 529.9375 377.71875 535.707031 350.058594 535.707031 341.253906 C 534.292969 335.152344 526.894531 329.6875 518.203125 329.109375 C 517.105469 329.027344 515.988281 329.027344 514.820312 329.027344 C 511.4375 328.875 509.144531 329.230469 507.308594 329.515625 C 504.929688 329.902344 502.453125 330.285156 500.421875 328.417969 C 498.3125 326.480469 498.523438 323.464844 498.625 322.011719 C 499.246094 313.421875 498.371094 282.285156 498.046875 270.558594 C 497.964844 267.492188 497.90625 265.46875 497.90625 265.035156 C 497.90625 221.574219 452.945312 185.949219 395.550781 183.929688 C 395.316406 183.929688 395.082031 183.898438 394.847656 183.847656 C 394.566406 183.859375 394.300781 183.839844 394.3125 183.867188 L 394.300781 183.808594 C 394.039062 183.878906 393.753906 183.917969 393.46875 183.929688 C 336.074219 185.949219 291.113281 221.574219 291.113281 265.035156 C 291.113281 265.46875 291.0625 267.492188 290.972656 270.558594 C 290.648438 282.285156 289.773438 313.429688 290.394531 322.011719 C 290.496094 323.464844 290.71875 326.457031 288.597656 328.417969 C 286.554688 330.296875 284.097656 329.902344 281.703125 329.515625 C 279.863281 329.230469 277.609375 328.875 274.390625 329.019531 C 273.03125 329.027344 271.902344 329.027344 270.808594 329.109375 C 262.117188 329.699219 254.722656 335.171875 253.210938 342.117188 C 253.304688 349.835938 259.203125 377.972656 266.949219 392.433594 C 269.386719 396.972656 272.765625 398.882812 277.050781 401.296875 C 279.367188 402.609375 281.78125 403.988281 284.230469 405.804688 C 289.253906 409.582031 290.320312 413.949219 291.4375 418.570312 C 294.699219 431.914062 302.972656 444.65625 317.542969 458.914062 C 319.554688 460.882812 328.527344 467.941406 340.125 476.046875 C 341.261719 476.835938 341.921875 478.167969 341.847656 479.558594 C 341.261719 492.730469 340.640625 501.066406 340.023438 504.347656 C 338.539062 512.054688 330.902344 517.261719 323.988281 519.019531 L 252.0625 545.117188 C 243.515625 547.382812 236.335938 550.328125 230.386719 554.003906 C 213.847656 564.207031 205.980469 571.996094 200.070312 593.847656 C 195.480469 610.777344 194.78125 657.800781 194.484375 677.878906 C 194.425781 681.460938 194.382812 684.347656 194.332031 686.296875 Z M 194.332031 686.296875 " fill-opacity="1" fill-rule="nonzero"/><path fill="#d3a47d" d="M 519.09375 371.179688 L 513.035156 370.507812 L 515.074219 352.445312 L 504.808594 356.890625 L 502.394531 351.296875 L 517.480469 344.757812 C 518.464844 344.332031 519.621094 344.460938 520.496094 345.101562 C 521.371094 345.742188 521.835938 346.808594 521.714844 347.886719 Z M 273.203125 367.695312 L 270.582031 344.402344 C 270.460938 343.324219 270.929688 342.257812 271.800781 341.621094 C 272.675781 340.980469 273.832031 340.816406 274.828125 341.273438 L 289.914062 347.8125 L 287.5 353.410156 L 277.234375 348.960938 L 279.273438 367.027344 Z M 273.203125 367.695312 " fill-opacity="1" fill-rule="nonzero"/><path fill="#472b29" d="M 286.808594 412.804688 C 286.796875 412.804688 286.789062 412.804688 286.769531 412.804688 C 285.652344 412.78125 284.757812 411.847656 284.777344 410.730469 L 286.453125 322.925781 C 286.472656 321.808594 287.175781 320.804688 288.523438 320.933594 C 289.640625 320.953125 290.535156 321.890625 290.515625 323.007812 L 288.839844 410.8125 C 288.808594 411.929688 287.90625 412.804688 286.808594 412.804688 Z M 286.808594 412.804688 " fill-opacity="1" fill-rule="nonzero"/><path fill="#472b29" d="M 503.875 412.804688 C 502.769531 412.804688 501.863281 411.917969 501.84375 410.8125 L 500.179688 323.007812 C 500.160156 321.890625 501.050781 320.953125 502.167969 320.933594 C 502.179688 320.933594 502.199219 320.933594 502.210938 320.933594 C 503.316406 320.933594 504.21875 321.816406 504.242188 322.925781 L 505.90625 410.730469 C 505.925781 411.847656 505.03125 412.78125 503.914062 412.804688 C 503.894531 412.804688 503.886719 412.804688 503.875 412.804688 Z M 503.875 412.804688 " fill-opacity="1" fill-rule="nonzero"/><path fill="#472b29" d="M 460.722656 467.839844 C 442.519531 480.300781 408.222656 487.195312 401.601562 476.410156 C 396.75 468.5 389.730469 468.5 384.878906 476.410156 C 377.660156 488.171875 340.914062 476.003906 322.089844 462.539062 C 316.800781 462.804688 321.96875 464.328125 317.804688 468.003906 C 342.40625 489.125 390.492188 517.871094 393.101562 516.957031 C 393.101562 516.957031 393.226562 517.039062 393.246094 517.03125 L 393.386719 516.957031 C 395.84375 517.007812 437.433594 492.941406 463.078125 472.449219 C 459.476562 468.0625 466.5 467.941406 460.722656 467.839844 Z M 460.722656 467.839844 " fill-opacity="1" fill-rule="nonzero"/><path fill="#472b29" d="M 498.746094 208.949219 C 498.746094 208.949219 520.921875 213.449219 520.261719 235.300781 C 519.613281 257.152344 504.421875 352.121094 504.421875 352.121094 L 473.3125 254.574219 Z M 498.746094 208.949219 " fill-opacity="1" fill-rule="nonzero"/><path fill="#472b29" d="M 381.375 147.902344 L 369.640625 131.835938 C 369.640625 131.835938 501.550781 117.425781 501.355469 189.027344 C 501.113281 284.144531 415.277344 304.046875 415.277344 304.046875 L 421.796875 278.347656 L 370.289062 305.335938 L 376.808594 289.914062 L 333.777344 305.335938 L 349.425781 270 L 310.953125 284.132812 C 310.953125 284.132812 295.875 321.6875 290.332031 352.121094 C 290.332031 352.121094 260.398438 251.457031 279.652344 243.648438 L 272.484375 239.789062 L 281.609375 221.796875 L 267.914062 216.007812 L 279.652344 199.304688 L 274.433594 192.234375 L 300.515625 177.460938 L 286.820312 170.394531 C 286.820312 170.394531 330.507812 134.40625 381.375 147.902344 Z M 381.375 147.902344 " fill-opacity="1" fill-rule="nonzero"/><path fill="#66798f" d="M 381.132812 316.292969 C 360.917969 291.660156 284.71875 309.125 284.636719 309.113281 C 286.039062 314.679688 287.246094 320.171875 288.351562 325.605469 C 294.007812 326.195312 294.34375 338.910156 294.910156 343.558594 C 297.652344 366.019531 312.679688 382.582031 344.328125 381.800781 C 376.035156 380.15625 383.449219 357.195312 384.757812 342.746094 C 386.167969 326.976562 381.121094 316.34375 381.132812 316.292969 Z M 377.519531 343.894531 C 375.882812 364.03125 363.527344 375.808594 343.546875 376.773438 C 341.523438 376.886719 339.554688 376.898438 337.675781 376.816406 C 306.179688 376.753906 300.800781 349.195312 300.179688 331.757812 C 299.773438 321.777344 306.902344 313.238281 316.953125 312.242188 C 322.730469 311.671875 329.238281 311.671875 336.761719 311.671875 C 360.296875 311.671875 370.53125 317.289062 373.265625 321.796875 C 374.859375 324.488281 378.433594 332.957031 377.519531 343.894531 Z M 403.449219 342.746094 C 404.757812 357.195312 412.171875 380.15625 443.878906 381.800781 C 475.527344 382.582031 490.554688 366.019531 493.296875 343.558594 C 493.855469 338.910156 494.1875 326.195312 499.855469 325.605469 C 500.949219 320.171875 502.167969 314.679688 503.570312 309.113281 C 503.488281 309.125 427.289062 291.648438 407.074219 316.292969 C 407.0625 316.34375 402.019531 326.976562 403.449219 342.746094 Z M 414.933594 321.808594 C 417.652344 317.300781 427.898438 311.683594 451.433594 311.683594 C 458.945312 311.683594 465.457031 311.683594 471.242188 312.253906 C 481.292969 313.246094 488.421875 321.789062 488.015625 331.769531 C 487.398438 349.203125 482.003906 376.765625 450.519531 376.824219 C 448.640625 376.90625 446.671875 376.886719 444.652344 376.785156 C 424.660156 375.820312 412.3125 364.03125 410.679688 343.90625 C 409.765625 332.957031 413.328125 324.488281 414.933594 321.808594 Z M 414.933594 321.808594 " fill-opacity="1" fill-rule="nonzero"/><path fill="#66798f" d="M 407.765625 335.648438 C 407.765625 335.648438 402.597656 331.566406 393.558594 331.578125 C 385.09375 331.578125 380.421875 335.648438 380.421875 335.648438 C 379.039062 331.832031 377.660156 328.011719 376.269531 324.203125 C 388.148438 324.203125 400.027344 324.203125 411.90625 324.203125 C 410.527344 328.023438 409.144531 331.832031 407.765625 335.648438 Z M 407.765625 335.648438 " fill-opacity="1" fill-rule="nonzero"/><path fill="#ffffff" d="M 575.140625 636.40625 L 676.671875 636.40625 L 676.671875 737.953125 L 575.140625 737.953125 Z M 575.140625 636.40625 " fill-opacity="1" fill-rule="nonzero"/><path fill="#afabd4" d="M 596.289062 800.066406 C 587.984375 797.722656 579.984375 794.453125 572.378906 790.328125 C 576.625 776.121094 573.34375 763.308594 562.714844 752.96875 C 555.453125 745.902344 547.035156 742.316406 537.707031 742.316406 C 533.828125 742.316406 529.804688 742.957031 525.695312 744.226562 C 521.472656 736.691406 518.121094 728.773438 515.683594 720.566406 C 529.117188 713.429688 535.980469 701.851562 535.625 686.761719 C 535.277344 672.3125 528.261719 661.324219 515.226562 654.675781 C 517.550781 646.417969 520.78125 638.457031 524.882812 630.882812 C 529.15625 632.253906 533.328125 632.945312 537.351562 632.945312 C 546.933594 632.945312 555.535156 629.136719 562.90625 621.652344 C 573.34375 611.03125 576.269531 598.050781 571.527344 583.816406 C 578.9375 579.691406 586.867188 576.382812 595.214844 573.90625 C 602.097656 587.390625 613.347656 594.46875 628.058594 594.46875 C 629.1875 594.46875 630.355469 594.425781 631.542969 594.335938 C 645.21875 593.320312 655.523438 586.242188 661.675781 573.742188 C 669.882812 576.097656 677.820312 579.386719 685.394531 583.542969 C 680.714844 598 683.789062 611.058594 694.480469 621.609375 C 701.8125 628.851562 710.289062 632.527344 719.691406 632.527344 C 723.792969 632.515625 728.050781 631.804688 732.375 630.363281 C 735.652344 636.425781 740.089844 647.019531 742.132812 654.066406 C 728.515625 661.164062 721.539062 672.789062 721.855469 687.972656 C 722.148438 702.25 729.042969 713.207031 741.898438 720 C 739.5 728.214844 736.183594 736.164062 731.988281 743.71875 C 727.886719 742.511719 723.894531 741.890625 720.070312 741.890625 C 709.449219 741.890625 700.1875 746.410156 692.542969 755.316406 C 684.015625 765.257812 681.648438 777.148438 685.558594 790.023438 C 678.003906 794.175781 670.003906 797.488281 661.699219 799.90625 C 655.027344 787.464844 642.976562 780.195312 628.660156 780.195312 C 614.902344 780.386719 602.839844 788.023438 596.289062 800.066406 Z M 628.617188 658.410156 C 612.953125 658.410156 600.148438 671.113281 600.078125 686.722656 C 600.007812 702.421875 612.757812 715.265625 628.507812 715.335938 C 644.101562 715.246094 656.609375 703.113281 657.058594 687.695312 C 657.28125 679.96875 654.457031 672.667969 649.109375 667.113281 C 643.777344 661.570312 636.597656 658.472656 628.902344 658.410156 C 628.882812 658.410156 628.636719 658.410156 628.617188 658.410156 Z M 628.617188 658.410156 " fill-opacity="1" fill-rule="nonzero"/><path fill="#472b29" d="M 664.976562 582.253906 C 669.097656 583.671875 673.140625 585.347656 677.078125 587.257812 C 674.136719 602.011719 678.339844 615.691406 689.464844 626.679688 C 698.054688 635.15625 708.492188 639.636719 719.671875 639.636719 C 722.605469 639.636719 725.582031 639.332031 728.597656 638.722656 C 730.34375 642.5 732.171875 646.957031 733.59375 650.886719 C 721.003906 659.425781 714.394531 672.300781 714.71875 688.125 C 715.03125 702.9375 721.5625 715.03125 733.398438 723.167969 C 731.9375 727.382812 730.210938 731.515625 728.230469 735.535156 C 725.460938 735.039062 722.71875 734.785156 720.039062 734.785156 C 707.4375 734.785156 696.054688 740.289062 687.121094 750.695312 C 678.339844 760.933594 675.019531 773.25 677.34375 786.277344 C 673.261719 788.269531 669.058594 790.003906 664.765625 791.488281 C 656.457031 779.921875 643.390625 773.085938 628.648438 773.085938 C 628.585938 773.085938 628.101562 773.085938 628.039062 773.085938 C 614.089844 773.257812 601.335938 780.265625 593.164062 791.679688 C 588.847656 790.238281 584.65625 788.53125 580.550781 786.542969 C 583.101562 772.03125 578.714844 758.617188 567.65625 747.863281 C 559.140625 739.578125 548.78125 735.199219 537.695312 735.199219 C 534.953125 735.199219 532.171875 735.464844 529.359375 735.992188 C 527.359375 731.992188 525.632812 727.910156 524.152344 723.714844 C 536.589844 715.144531 543.085938 702.320312 542.722656 686.582031 C 542.367188 671.570312 535.707031 659.425781 523.664062 651.382812 C 525.066406 647.222656 526.71875 643.140625 528.617188 639.167969 C 531.5625 639.746094 534.46875 640.03125 537.332031 640.03125 C 548.734375 640.03125 559.332031 635.390625 567.960938 626.605469 C 578.816406 615.578125 582.859375 602.003906 579.851562 587.460938 C 583.761719 585.550781 587.800781 583.867188 591.964844 582.40625 C 600.261719 594.863281 612.71875 601.578125 628.058594 601.578125 C 629.359375 601.578125 630.691406 601.527344 632.058594 601.425781 C 646.144531 600.398438 657.484375 593.707031 664.976562 582.253906 M 628.527344 722.445312 C 628.558594 722.445312 628.585938 722.445312 628.617188 722.445312 C 647.992188 722.335938 663.605469 707.164062 664.15625 687.910156 C 664.429688 678.273438 660.90625 669.132812 654.226562 662.1875 C 647.554688 655.261719 638.589844 651.394531 628.628906 651.304688 C 609.054688 651.304688 593.050781 667.175781 592.96875 686.691406 C 592.929688 696.214844 596.59375 705.171875 603.316406 711.925781 C 610.015625 718.667969 618.953125 722.40625 628.476562 722.445312 C 628.484375 722.445312 628.507812 722.445312 628.527344 722.445312 M 657.472656 565.324219 C 653.046875 578.199219 644.46875 586.273438 631.003906 587.269531 C 630 587.339844 629.015625 587.378906 628.058594 587.378906 C 613.773438 587.378906 604.371094 579.277344 599.246094 565.457031 C 586.15625 568.65625 573.964844 573.710938 562.640625 580.800781 C 568.867188 593.949219 568.0625 606.246094 557.828125 616.65625 C 551.644531 622.953125 544.730469 625.835938 537.332031 625.835938 C 532.335938 625.835938 527.117188 624.527344 521.753906 622.046875 C 514.820312 633.460938 509.835938 645.675781 506.851562 658.757812 C 520.160156 663.628906 528.183594 672.757812 528.515625 686.925781 C 528.863281 701.660156 520.933594 711.296875 507.257812 716.605469 C 510.402344 729.585938 515.542969 741.660156 522.617188 752.960938 C 527.804688 750.644531 532.863281 749.417969 537.707031 749.417969 C 544.914062 749.417969 551.675781 752.136719 557.757812 758.058594 C 568.125 768.140625 569.382812 780.328125 563.648438 793.496094 C 575.070312 800.441406 587.214844 805.410156 600.21875 808.402344 C 600.414062 808.019531 600.566406 807.785156 600.65625 807.542969 C 605.355469 795.292969 616.027344 787.457031 628.230469 787.304688 C 628.375 787.304688 628.515625 787.304688 628.660156 787.304688 C 641.523438 787.304688 652.152344 794.5625 657.097656 806.859375 C 657.464844 807.773438 657.871094 808.058594 658.449219 808.058594 C 658.734375 808.058594 659.058594 807.988281 659.433594 807.898438 C 671.191406 804.921875 682.289062 800.339844 692.707031 794.125 C 693.273438 793.792969 693.8125 793.394531 694.269531 793.101562 C 688.96875 781.160156 689.457031 769.828125 697.925781 759.957031 C 704.351562 752.460938 711.835938 749.011719 720.058594 749.011719 C 724.851562 749.011719 729.898438 750.179688 735.136719 752.410156 C 742.160156 741.058594 747.21875 728.953125 750.292969 716.007812 C 737.175781 710.980469 729.238281 701.996094 728.941406 687.828125 C 728.628906 672.890625 736.710938 663.425781 750.253906 658.1875 C 749.433594 650.023438 739.929688 627.09375 735.125 621.632812 C 729.835938 624.109375 724.667969 625.417969 719.691406 625.417969 C 712.445312 625.417969 705.609375 622.625 699.46875 616.554688 C 688.9375 606.167969 688.117188 593.726562 694.230469 580.453125 C 682.804688 573.4375 670.5625 568.359375 657.472656 565.324219 Z M 628.535156 708.230469 C 616.679688 708.179688 607.125 698.5625 607.183594 686.753906 C 607.234375 674.972656 616.78125 665.519531 628.636719 665.519531 C 628.710938 665.519531 628.769531 665.519531 628.839844 665.519531 C 640.773438 665.632812 650.296875 675.53125 649.949219 687.503906 C 649.636719 698.632812 640.578125 708.160156 628.535156 708.230469 Z M 628.535156 708.230469 " fill-opacity="1" fill-rule="nonzero"/><path fill="#7777ab" d="M 703.5 667.804688 C 692.960938 626.425781 650.875 601.414062 609.5 611.945312 C 568.125 622.484375 543.117188 664.574219 553.644531 705.953125 C 564.1875 747.335938 606.269531 772.34375 647.644531 761.816406 C 689.03125 751.273438 714.027344 709.183594 703.5 667.804688 Z M 643.808594 746.714844 C 610.757812 755.132812 577.152344 735.160156 568.746094 702.105469 C 560.328125 669.054688 580.300781 635.441406 613.347656 627.035156 C 646.394531 618.617188 680.003906 638.589844 688.410156 671.644531 C 696.816406 704.695312 676.847656 738.308594 643.808594 746.714844 Z M 643.808594 746.714844 " fill-opacity="1" fill-rule="nonzero"/><path fill="#472b29" d="M 565.972656 689.414062 C 564.570312 689.414062 563.433594 688.277344 563.433594 686.875 C 563.433594 650.957031 592.644531 621.742188 628.566406 621.742188 C 638.253906 621.742188 647.5625 623.816406 656.234375 627.886719 C 657.503906 628.496094 658.050781 630 657.453125 631.269531 C 656.855469 632.546875 655.332031 633.054688 654.074219 632.488281 C 646.082031 628.71875 637.503906 626.808594 628.566406 626.808594 C 595.457031 626.808594 568.511719 653.75 568.511719 686.863281 C 568.511719 688.265625 567.375 689.414062 565.972656 689.414062 Z M 628.566406 752.015625 C 599.957031 752.015625 574.976562 733.675781 566.410156 706.402344 C 565.992188 705.0625 566.734375 703.640625 568.074219 703.222656 C 569.414062 702.828125 570.835938 703.546875 571.253906 704.878906 C 579.140625 730.042969 602.167969 746.949219 628.558594 746.949219 C 642.121094 746.949219 654.925781 742.53125 665.566406 734.183594 C 666.664062 733.3125 668.265625 733.523438 669.128906 734.609375 C 669.992188 735.707031 669.800781 737.3125 668.703125 738.175781 C 657.160156 747.222656 643.28125 752.015625 628.566406 752.015625 Z M 677.484375 728.46875 C 676.925781 728.46875 676.367188 728.285156 675.902344 727.910156 C 674.804688 727.035156 674.632812 725.441406 675.507812 724.335938 C 684.085938 713.589844 688.625 700.632812 688.625 686.863281 C 688.625 679.308594 687.242188 671.949219 684.511719 664.992188 C 684.003906 663.691406 684.644531 662.21875 685.953125 661.710938 C 687.261719 661.214844 688.734375 661.84375 689.242188 663.152344 C 692.199219 670.699219 693.699219 678.679688 693.699219 686.875 C 693.699219 701.820312 688.785156 715.867188 679.476562 727.523438 C 678.96875 728.140625 678.226562 728.46875 677.484375 728.46875 Z M 677.484375 728.46875 " fill-opacity="1" fill-rule="nonzero"/><path fill="#472b29" d="M 680.125 653.921875 C 679.324219 653.921875 678.53125 653.535156 678.035156 652.828125 C 674.796875 648.125 670.894531 643.902344 666.4375 640.285156 C 665.351562 639.390625 665.179688 637.796875 666.074219 636.699219 C 666.96875 635.605469 668.570312 635.472656 669.648438 636.335938 C 674.480469 640.265625 678.703125 644.84375 682.21875 649.953125 C 683.007812 651.101562 682.714844 652.695312 681.566406 653.484375 C 681.128906 653.769531 680.632812 653.921875 680.125 653.921875 Z M 680.125 653.921875 " fill-opacity="1" fill-rule="nonzero"/></svg>